<?xml version="1.0" standalone="no"?>
<!DOCTYPE svg PUBLIC "-//W3C//DTD SVG 1.1//EN" "http://www.w3.org/Graphics/SVG/1.1/DTD/svg11.dtd" >
<svg xmlns="http://www.w3.org/2000/svg">
<metadata></metadata>
<defs>
<font id="DroidRegular" horiz-adv-x="534" >
<font-face units-per-em="2048" ascent="1688" descent="-360" />
<missing-glyph horiz-adv-x="200" />
<glyph unicode="&#x28;C&#x29;" horiz-adv-x="1228" d="M45 877q0 217 30 379.5t79.5 262t124.5 161t155 84t180 22.5t180 -22.5t155 -84t125 -161t80 -262t30 -379.5q0 -216 -30 -377.5t-80 -260.5t-125 -159.5t-154.5 -82.5t-180.5 -22t-180.5 22t-154.5 82.5t-124.5 159.5t-79.5 260.5t-30 377.5zM143 874q0 -191 25 -334 t66.5 -231t103.5 -141.5t128 -73.5t148 -20q69 0 126 14t112.5 47.5t97.5 93.5t74 146t49 212.5t17 286.5q0 192 -25 336t-67 232.5t-104.5 143t-129.5 75t-150 20.5q-82 0 -148 -20.5t-128 -75t-103.5 -143t-66.5 -232.5t-25 -336zM467 383v987q0 148 143 148q70 0 107 -38 t37 -110v-375h-109v389q0 39 -35 39q-18 0 -25 -9t-7 -30v-1003q0 -23 7 -33t25 -10q35 0 35 43v434h109v-432q0 -143 -144 -143q-143 0 -143 143z" />
<glyph unicode="&#x28;R&#x29;" horiz-adv-x="1228" d="M45 877q0 217 30 379.5t79.5 262t124.5 161t155 84t180 22.5t180 -22.5t155 -84t125 -161t80 -262t30 -379.5q0 -216 -30 -377.5t-80 -260.5t-125 -159.5t-154.5 -82.5t-180.5 -22t-180.5 22t-154.5 82.5t-124.5 159.5t-79.5 260.5t-30 377.5zM143 874q0 -191 25 -334 t66.5 -231t103.5 -141.5t128 -73.5t148 -20q69 0 126 14t112.5 47.5t97.5 93.5t74 146t49 212.5t17 286.5q0 192 -25 336t-67 232.5t-104.5 143t-129.5 75t-150 20.5q-82 0 -148 -20.5t-128 -75t-103.5 -143t-66.5 -232.5t-25 -336zM469 240v1276h141q75 0 114.5 -36.5 t39.5 -105.5v-336q0 -113 -113 -133q59 -6 86 -32t27 -78v-414q0 -96 20 -141h-120q-15 38 -15 145v424q0 49 -67 49v-618h-113zM582 954h24q43 0 43 52v370q0 51 -43 51h-24v-473z" />
<glyph horiz-adv-x="0" />
<glyph horiz-adv-x="2048" />
<glyph horiz-adv-x="200" />
<glyph unicode=" "  horiz-adv-x="200" />
<glyph unicode="&#x09;" horiz-adv-x="200" />
<glyph unicode="&#xa0;" horiz-adv-x="200" />
<glyph unicode="!" horiz-adv-x="360" d="M102 0v172h154v-172h-154zM102 307v1452h154v-1452h-154z" />
<glyph unicode="&#x22;" horiz-adv-x="468" d="M63 1356v403h119v-403h-119zM287 1356v403h116v-403h-116z" />
<glyph unicode="#" horiz-adv-x="612" d="M20 567v121h103v350h-103v119h99v602h119v-602h141v602h119v-600h90v-121h-96v-350h96v-121h-101v-567h-110v567h-150v-567h-108v567h-99zM231 686h152v352h-152v-352z" />
<glyph unicode="$" horiz-adv-x="495" d="M55 395v258h160v-225q0 -39 45 -39q47 0 47 39v90q0 61 -28 137l-173 441q-51 146 -51 213v57q0 109 127 133v260h66v-254h31v254h65v-262q121 -24 121 -131v-236h-158v211q0 35 -47 35q-45 0 -45 -30v-68q0 -49 35 -141l174 -463q3 -11 14 -45t14.5 -47.5t8 -39.5 t4.5 -50v-97q0 -109 -121 -133v-262h-65v256h-31v-256h-66v262q-127 21 -127 133z" />
<glyph unicode="%" horiz-adv-x="802" d="M41 1139v465q0 182 158 182q155 0 155 -182v-465q0 -183 -155 -183q-158 0 -158 183zM164 1100q0 -49 35 -49q34 0 34 49v540q0 48 -34 48q-35 0 -35 -46v-542zM180 0l385 1759h76l-385 -1759h-76zM446 160v372q0 185 158 185q154 0 154 -185v-372q0 -185 -154 -185 q-158 0 -158 185zM567 119q0 -47 35 -47q33 0 33 47v459q0 43 -33 43q-35 0 -35 -43v-459z" />
<glyph unicode="&#x26;" horiz-adv-x="604" d="M55 240v522q0 73 18 122.5t68 98.5q-55 94 -55 176v457q0 170 197 170q184 0 184 -170v-457q0 -102 -160 -219l99 -399v360h126v-690q0 -45 -16 -88h49v-123h-100q-31 0 -49 18q-37 -43 -123 -43q-117 0 -177.5 69t-60.5 196zM190 813l25 -575q3 -81 18 -111.5t56 -30.5 q44 0 67 27zM236 1157q0 -17 7 -48.5t13 -47.5q68 50 68 94v461q0 34 -10 47.5t-33 13.5q-45 0 -45 -61v-459z" />
<glyph unicode="'" horiz-adv-x="256" d="M63 1360v399h119v-399h-119z" />
<glyph unicode="(" horiz-adv-x="389" d="M90 840q0 223 38.5 595.5t94.5 491.5h131q-61 -122 -97 -489.5t-36 -597.5q0 -130 12.5 -337t45.5 -438.5t77 -310.5h-133q-41 78 -73.5 306t-46 438.5t-13.5 341.5z" />
<glyph unicode=")" horiz-adv-x="389" d="M33 -246q44 79 77 310.5t45.5 438.5t12.5 337q0 230 -36 597.5t-97 489.5h131q56 -119 94.5 -491.5t38.5 -595.5q0 -131 -13.5 -341.5t-46 -438.5t-73.5 -306h-133z" />
<glyph unicode="*" horiz-adv-x="425" d="M12 1577l31 94l119 -37l-2 125h102l-2 -125l119 37l31 -94l-119 -39l67 -100l-79 -62l-70 103l-74 -105l-82 60l78 104z" />
<glyph unicode="+" horiz-adv-x="649" d="M37 764v121h221v229h123v-229h223v-121h-223v-234h-123v234h-221z" />
<glyph unicode="," horiz-adv-x="256" d="M41 -188l49 348h148l-107 -348h-90z" />
<glyph unicode="-" horiz-adv-x="319" d="M31 786v115h260v-115h-260z" />
<glyph unicode="." horiz-adv-x="276" d="M63 0v168h144v-168h-144z" />
<glyph unicode="/" horiz-adv-x="522" d="M6 0l406 1759h104l-410 -1759h-100z" />
<glyph unicode="0" d="M61 180v1403q0 203 205 203q207 0 207 -203v-1403q0 -205 -207 -205q-205 0 -205 205zM221 172q0 -63 45 -63q47 0 47 63v1427q0 60 -47 60q-45 0 -45 -60v-1427z" />
<glyph unicode="1" horiz-adv-x="354" d="M12 1503v117q108 0 146 139h129v-1759h-160v1503h-115z" />
<glyph unicode="2" horiz-adv-x="516" d="M51 0v76q1 12 3 26t8 41.5t12 54t18.5 84t24.5 109.5q18 80 62.5 263.5t69.5 295t47.5 270t22.5 287.5v88q0 60 -47 60q-45 0 -45 -60v-200h-157v186q0 104 49 154.5t160 50.5q110 0 154 -41.5t44 -155.5v-90q0 -99 -10.5 -204t-39 -246.5t-44 -211t-62 -256 t-55.5 -223.5q-35 -153 -45 -231h238v-127h-408z" />
<glyph unicode="3" horiz-adv-x="530" d="M61 180v506h160v-512q0 -65 45 -65q43 0 43 65v502q0 40 -21 59.5t-67 28.5v123q88 20 88 92v614q0 66 -43 66q-45 0 -45 -66v-577h-160v565q0 205 205 205q201 0 201 -205v-586q0 -151 -119 -166q69 -10 94 -40.5t25 -102.5v-506q0 -103 -48.5 -154t-152.5 -51 q-205 0 -205 205z" />
<glyph unicode="4" horiz-adv-x="575" d="M49 262v1497h137v-1366h127v1366h154v-1366h65v-131h-65v-262h-160v262h-258z" />
<glyph unicode="5" horiz-adv-x="516" d="M61 180v637h156v-643q0 -65 45 -65q47 0 47 65v723q0 61 -39 61q-21 0 -43 -34h-157v835h405v-129h-250v-592q61 58 127 58q115 0 115 -176v-746q0 -199 -205 -199q-201 0 -201 205z" />
<glyph unicode="6" d="M61 180v1401q0 205 205 205q207 0 207 -205v-524h-162v538q0 66 -45 66q-47 0 -47 -66v-686q55 49 119 49q58 0 96.5 -44t38.5 -109v-625q0 -205 -207 -205q-205 0 -205 205zM219 170q0 -61 47 -61q45 0 45 61v592q0 61 -45 61q-47 0 -47 -61v-592z" />
<glyph unicode="7" horiz-adv-x="481" d="M29 1628v131h430v-133l-232 -1626h-170l246 1628h-274z" />
<glyph unicode="8" d="M61 180v535q0 131 119 168q-65 23 -88.5 58t-23.5 108v532q0 205 198 205q203 0 203 -205v-528q0 -75 -29.5 -115t-95.5 -55q129 -24 129 -164v-539q0 -205 -207 -205q-205 0 -205 205zM221 170q0 -61 45 -61q47 0 47 65v571q0 64 -47 64q-45 0 -45 -61v-578zM221 1016 q0 -62 45 -62q47 0 47 62v581q0 62 -47 62q-45 0 -45 -62v-581z" />
<glyph unicode="9" d="M61 180v467h160v-473q0 -65 45 -65q47 0 47 65v598q-49 -49 -112 -49t-101.5 43t-38.5 108v707q0 205 205 205q207 0 207 -205v-1401q0 -205 -207 -205q-205 0 -205 205zM221 924q0 -58 45 -58q47 0 47 60v663q0 62 -47 62q-45 0 -45 -62v-665z" />
<glyph unicode=":" horiz-adv-x="266" d="M61 258v170h144v-170h-144zM61 934v166h144v-166h-144z" />
<glyph unicode=";" horiz-adv-x="278" d="M37 70l49 352h150l-109 -352h-90zM80 934v166h141v-166h-141z" />
<glyph unicode="&#x3c;" horiz-adv-x="696" d="M31 762v115l624 260v-133l-448 -183l448 -186v-127z" />
<glyph unicode="=" horiz-adv-x="649" d="M37 643v119h567v-119h-567zM37 887v121h567v-121h-567z" />
<glyph unicode="&#x3e;" horiz-adv-x="696" d="M31 508v127l448 186l-448 183v133l624 -260v-115z" />
<glyph unicode="?" horiz-adv-x="411" d="M31 1192v428q0 166 176 166q99 0 137.5 -43.5t38.5 -124.5v-182q0 -221 -7.5 -309.5t-35.5 -186.5q-42 -144 -56 -217.5t-14 -138.5v-326h-139v326q0 87 12 157t47 199q34 128 41 202.5t7 305.5v174q0 49 -31 49q-33 0 -33 -49v-430h-143zM131 0v172h139v-172h-139z" />
<glyph unicode="@" horiz-adv-x="663" d="M61 -68v1452q0 44 12.5 75t42.5 55t83.5 35.5t132.5 11.5q152 0 211 -43.5t59 -131.5v-1302h-113l-6 57q-17 -65 -102 -65q-78 0 -78 108v940q0 115 80 115q74 0 104 -53v200q0 30 -39 50t-120 20q-79 0 -116.5 -19.5t-37.5 -50.5v-1454q0 -32 37 -52.5t117 -20.5 t119.5 21t39.5 50v62h115v-62q0 -90 -59.5 -135t-210.5 -45q-153 0 -212 45.5t-59 136.5zM412 199q0 -37 37 -37q38 11 38 47v897q0 37 -38 37q-37 0 -37 -37v-907z" />
<glyph unicode="A" horiz-adv-x="528" d="M61 135v645q0 68 123 144t123 168v542q0 45 -51 45t-51 -45v-571h-144v557q0 166 195 166q203 0 203 -166v-1569q0 -37 6 -51h-152q0 6 -4 68q-39 -80 -108 -80q-64 0 -102 36t-38 111zM205 152q0 -48 51 -48q25 0 38 15t13 39v743q-69 -43 -85.5 -62.5t-16.5 -54.5v-632 z" />
<glyph unicode="B" horiz-adv-x="538" d="M63 0v1759h189q223 0 223 -192v-537q0 -133 -158 -160v-6q158 -18 158 -149v-522q0 -193 -223 -193h-189zM221 131h35q57 0 57 70v534q0 68 -57 68h-35v-672zM221 932h35q57 0 57 69v568q0 69 -57 69h-35v-706z" />
<glyph unicode="C" horiz-adv-x="532" d="M61 180v1401q0 205 205 205q203 0 203 -205v-537h-158v549q0 64 -45 64t-45 -64v-1419q0 -65 45 -65t45 65v612h158v-606q0 -205 -203 -205q-205 0 -205 205z" />
<glyph unicode="D" horiz-adv-x="538" d="M63 0v1759h189q223 0 223 -192v-1374q0 -193 -223 -193h-189zM221 131h35q57 0 57 70v1368q0 69 -57 69h-35v-1507z" />
<glyph unicode="E" horiz-adv-x="542" d="M61 162v1450q0 84 53 129t156 45q97 0 153 -43.5t56 -114.5v-805h-258v-684q0 -43 51 -43q25 0 36 10t11 33v609h160v-609q0 -77 -56 -120.5t-151 -43.5q-211 0 -211 187zM221 932h98v694q0 45 -47 45q-51 0 -51 -45v-694z" />
<glyph unicode="F" horiz-adv-x="415" d="M63 0v1759h345v-143h-187v-649h187v-138h-187v-829h-158z" />
<glyph unicode="G" horiz-adv-x="540" d="M63 139v520h152v-524q0 -47 51 -47t51 47v672q-40 -72 -143 -72q-111 0 -111 156v731q0 150 109 150q114 0 141 -93l6 80h156v-1620q0 -82 -58 -123t-134 -41q-116 0 -168 40.5t-52 123.5zM215 915q0 -49 51 -49t51 49v674q0 49 -51 66q-51 0 -51 -49v-691z" />
<glyph unicode="H" d="M63 0v1759h158v-825h90v825h158v-1759h-158v786h-90v-786h-158z" />
<glyph unicode="I" horiz-adv-x="292" d="M63 0v1759h158v-1759h-158z" />
<glyph unicode="J" horiz-adv-x="288" d="M12 0v119h19q49 0 49 47v1593h139v-1603q0 -88 -29.5 -122t-109.5 -34h-68z" />
<glyph unicode="K" horiz-adv-x="530" d="M63 0v1759h162v-827l121 827h164l-148 -841l144 -918h-168l-113 874v-874h-162z" />
<glyph unicode="L" horiz-adv-x="421" d="M63 0v1759h158v-1616h191v-143h-349z" />
<glyph unicode="M" horiz-adv-x="763" d="M63 0v1759h148v-65q26 78 133 78q87 0 111 -76q30 76 131 76q112 0 112 -146v-1626h-151v1604q0 49 -51 49q-41 0 -41 -49v-1604h-150v1604q0 49 -51 49q-39 0 -39 -49v-1604h-152z" />
<glyph unicode="N" horiz-adv-x="524" d="M63 0v1759h146v-65q40 78 137 78q111 0 111 -146v-1626h-150v1604q0 49 -51 49q-41 0 -41 -49v-1604h-152z" />
<glyph unicode="O" d="M61 180v1401q0 205 205 205q207 0 207 -205v-1401q0 -205 -207 -205q-205 0 -205 205zM221 170q0 -61 45 -61q47 0 47 63v1427q0 60 -47 60q-45 0 -45 -60v-1429z" />
<glyph unicode="P" horiz-adv-x="495" d="M63 0v1759h189q223 0 223 -192v-617q0 -107 -55.5 -151.5t-198.5 -44.5v-754h-158zM221 881h35q57 0 57 69v617q0 69 -57 69h-35v-755z" />
<glyph unicode="Q" horiz-adv-x="530" d="M57 180v1401q0 205 205 205q207 0 207 -205v-1401q0 -126 -80 -176h90v-125h-90q-41 0 -60.5 24t-19.5 77q-46 -5 -59 -5q-193 0 -193 205zM219 170q0 -61 43 -61q49 0 49 63v1425q0 60 -49 60q-43 0 -43 -60v-1427z" />
<glyph unicode="R" d="M63 0v1759h197q215 0 215 -192v-467q0 -152 -158 -182q158 -12 158 -152v-573q0 -135 25 -193h-164q-23 47 -23 199v587q0 66 -92 66v-852h-158zM221 983h35q57 0 57 72v514q0 67 -57 67h-35v-653z" />
<glyph unicode="S" horiz-adv-x="524" d="M55 180v371h160v-377q0 -65 45 -65q47 0 47 65v150q0 124 -28 239q-26 113 -91 314.5t-90 306.5q-43 171 -43 315v82q0 205 205 205t205 -205v-340h-158v352q0 66 -47 66q-45 0 -45 -53v-115q0 -123 31 -246q25 -103 93.5 -314t94.5 -331q31 -152 31 -281v-139 q0 -205 -205 -205t-205 205z" />
<glyph unicode="T" horiz-adv-x="477" d="M20 1622v137h435v-137h-138v-1622h-157v1622h-140z" />
<glyph unicode="U" horiz-adv-x="522" d="M57 180v1579h162v-1585q0 -65 43 -65q49 0 49 65v1585h158v-1579q0 -205 -207 -205q-205 0 -205 205z" />
<glyph unicode="V" horiz-adv-x="526" d="M25 1759h163l80 -1526l78 1526h160l-125 -1759h-229z" />
<glyph unicode="W" horiz-adv-x="901" d="M33 1759h166l53 -1526l102 1526h209l103 -1526l53 1526h158l-97 -1759h-229l-96 1407l-93 -1407h-227z" />
<glyph unicode="X" horiz-adv-x="557" d="M29 0l170 918l-164 841h190l62 -469l73 469h154l-162 -813l174 -946h-172l-94 614l-100 -614h-131z" />
<glyph unicode="Y" horiz-adv-x="546" d="M61 180v467h162v-473q0 -31 13.5 -48t35.5 -17q50 0 50 65v598q-46 -49 -113 -49q-64 0 -106 43.5t-42 107.5v885h162v-831q0 -29 12.5 -45.5t30.5 -16.5q26 0 41 16t15 46v831h159v-1579q0 -205 -215 -205q-205 0 -205 205z" />
<glyph unicode="Z" horiz-adv-x="411" d="M33 0v86l182 1536h-182v137h350v-102l-178 -1520h184v-137h-356z" />
<glyph unicode="[" horiz-adv-x="389" d="M113 -133v2029h258v-110h-121v-1811h121v-108h-258z" />
<glyph unicode="\" horiz-adv-x="403" d="M6 1759h103l284 -1759h-100z" />
<glyph unicode="]" horiz-adv-x="389" d="M16 -25h123v1811h-123v110h260v-2029h-260v108z" />
<glyph unicode="^" horiz-adv-x="595" d="M0 1053l244 706h104l246 -706h-102l-197 585l-199 -585h-96z" />
<glyph unicode="_" horiz-adv-x="733" d="M0 -127h737v-123h-737v123z" />
<glyph unicode="`" horiz-adv-x="430" d="M100 2097h176l52 -248h-125z" />
<glyph unicode="a" horiz-adv-x="528" d="M61 135v645q0 68 123 144t123 168v542q0 45 -51 45t-51 -45v-571h-144v557q0 166 195 166q203 0 203 -166v-1569q0 -37 6 -51h-152q0 6 -4 68q-39 -80 -108 -80q-64 0 -102 36t-38 111zM205 152q0 -48 51 -48q25 0 38 15t13 39v743q-69 -43 -85.5 -62.5t-16.5 -54.5v-632 z" />
<glyph unicode="b" horiz-adv-x="538" d="M63 0v1759h189q223 0 223 -192v-537q0 -133 -158 -160v-6q158 -18 158 -149v-522q0 -193 -223 -193h-189zM221 131h35q57 0 57 70v534q0 68 -57 68h-35v-672zM221 932h35q57 0 57 69v568q0 69 -57 69h-35v-706z" />
<glyph unicode="c" horiz-adv-x="532" d="M61 180v1401q0 205 205 205q203 0 203 -205v-537h-158v549q0 64 -45 64t-45 -64v-1419q0 -65 45 -65t45 65v612h158v-606q0 -205 -203 -205q-205 0 -205 205z" />
<glyph unicode="d" horiz-adv-x="538" d="M63 0v1759h189q223 0 223 -192v-1374q0 -193 -223 -193h-189zM221 131h35q57 0 57 70v1368q0 69 -57 69h-35v-1507z" />
<glyph unicode="e" horiz-adv-x="542" d="M61 162v1450q0 84 53 129t156 45q97 0 153 -43.5t56 -114.5v-805h-258v-684q0 -43 51 -43q25 0 36 10t11 33v609h160v-609q0 -77 -56 -120.5t-151 -43.5q-211 0 -211 187zM221 932h98v694q0 45 -47 45q-51 0 -51 -45v-694z" />
<glyph unicode="f" horiz-adv-x="415" d="M63 0v1759h345v-143h-187v-649h187v-138h-187v-829h-158z" />
<glyph unicode="g" horiz-adv-x="540" d="M63 139v520h152v-524q0 -47 51 -47t51 47v672q-40 -72 -143 -72q-111 0 -111 156v731q0 150 109 150q114 0 141 -93l6 80h156v-1620q0 -82 -58 -123t-134 -41q-116 0 -168 40.5t-52 123.5zM215 915q0 -49 51 -49t51 49v674q0 49 -51 66q-51 0 -51 -49v-691z" />
<glyph unicode="h" d="M63 0v1759h158v-825h90v825h158v-1759h-158v786h-90v-786h-158z" />
<glyph unicode="i" horiz-adv-x="292" d="M63 0v1759h158v-1759h-158z" />
<glyph unicode="j" horiz-adv-x="288" d="M12 0v119h19q49 0 49 47v1593h139v-1603q0 -88 -29.5 -122t-109.5 -34h-68z" />
<glyph unicode="k" horiz-adv-x="530" d="M63 0v1759h162v-827l121 827h164l-148 -841l144 -918h-168l-113 874v-874h-162z" />
<glyph unicode="l" horiz-adv-x="421" d="M63 0v1759h158v-1616h191v-143h-349z" />
<glyph unicode="m" horiz-adv-x="763" d="M63 0v1759h148v-65q26 78 133 78q87 0 111 -76q30 76 131 76q112 0 112 -146v-1626h-151v1604q0 49 -51 49q-41 0 -41 -49v-1604h-150v1604q0 49 -51 49q-39 0 -39 -49v-1604h-152z" />
<glyph unicode="n" horiz-adv-x="524" d="M63 0v1759h146v-65q40 78 137 78q111 0 111 -146v-1626h-150v1604q0 49 -51 49q-41 0 -41 -49v-1604h-152z" />
<glyph unicode="o" d="M61 180v1401q0 205 205 205q207 0 207 -205v-1401q0 -205 -207 -205q-205 0 -205 205zM221 170q0 -61 45 -61q47 0 47 63v1427q0 60 -47 60q-45 0 -45 -60v-1429z" />
<glyph unicode="p" horiz-adv-x="495" d="M63 0v1759h189q223 0 223 -192v-617q0 -107 -55.5 -151.5t-198.5 -44.5v-754h-158zM221 881h35q57 0 57 69v617q0 69 -57 69h-35v-755z" />
<glyph unicode="q" horiz-adv-x="530" d="M57 180v1401q0 205 205 205q207 0 207 -205v-1401q0 -126 -80 -176h90v-125h-90q-41 0 -60.5 24t-19.5 77q-46 -5 -59 -5q-193 0 -193 205zM219 170q0 -61 43 -61q49 0 49 63v1425q0 60 -49 60q-43 0 -43 -60v-1427z" />
<glyph unicode="r" d="M63 0v1759h197q215 0 215 -192v-467q0 -152 -158 -182q158 -12 158 -152v-573q0 -135 25 -193h-164q-23 47 -23 199v587q0 66 -92 66v-852h-158zM221 983h35q57 0 57 72v514q0 67 -57 67h-35v-653z" />
<glyph unicode="s" horiz-adv-x="524" d="M55 180v371h160v-377q0 -65 45 -65q47 0 47 65v150q0 124 -28 239q-26 113 -91 314.5t-90 306.5q-43 171 -43 315v82q0 205 205 205t205 -205v-340h-158v352q0 66 -47 66q-45 0 -45 -53v-115q0 -123 31 -246q25 -103 93.5 -314t94.5 -331q31 -152 31 -281v-139 q0 -205 -205 -205t-205 205z" />
<glyph unicode="t" horiz-adv-x="477" d="M20 1622v137h435v-137h-138v-1622h-157v1622h-140z" />
<glyph unicode="u" horiz-adv-x="522" d="M57 180v1579h162v-1585q0 -65 43 -65q49 0 49 65v1585h158v-1579q0 -205 -207 -205q-205 0 -205 205z" />
<glyph unicode="v" horiz-adv-x="526" d="M25 1759h163l80 -1526l78 1526h160l-125 -1759h-229z" />
<glyph unicode="w" horiz-adv-x="901" d="M33 1759h166l53 -1526l102 1526h209l103 -1526l53 1526h158l-97 -1759h-229l-96 1407l-93 -1407h-227z" />
<glyph unicode="x" horiz-adv-x="557" d="M29 0l170 918l-164 841h190l62 -469l73 469h154l-162 -813l174 -946h-172l-94 614l-100 -614h-131z" />
<glyph unicode="y" horiz-adv-x="546" d="M61 180v467h162v-473q0 -31 13.5 -48t35.5 -17q50 0 50 65v598q-46 -49 -113 -49q-64 0 -106 43.5t-42 107.5v885h162v-831q0 -29 12.5 -45.5t30.5 -16.5q26 0 41 16t15 46v831h159v-1579q0 -205 -215 -205q-205 0 -205 205z" />
<glyph unicode="z" horiz-adv-x="411" d="M33 0v86l182 1536h-182v137h350v-102l-178 -1520h184v-137h-356z" />
<glyph unicode="{" horiz-adv-x="559" d="M45 825v121q27 0 49.5 5t40.5 18.5t31.5 29t24 43.5t18 54.5t12.5 70.5t8 82t4.5 98.5t2 111.5t0.5 128q0 184 59.5 252t230.5 72v-125q-139 0 -139 -178q0 -196 -12 -336t-52 -252.5t-108 -134.5q51 -17 86.5 -83t53.5 -173t25 -220t7 -257q0 -177 139 -177v-125 q-171 4 -230.5 71t-59.5 251q0 78 -0.5 129t-2 112t-4.5 100t-8 84t-12.5 72t-18 56t-24 45t-31.5 30t-40.5 19.5t-49.5 5.5z" />
<glyph unicode="|" horiz-adv-x="391" d="M127 -262v2214h129v-2214h-129z" />
<glyph unicode="}" horiz-adv-x="559" d="M33 -25q139 0 139 177q0 144 7 257t25 220t53.5 173t86.5 83q-68 22 -108 134.5t-52 252.5t-12 336q0 178 -139 178v125q170 -4 229.5 -72t59.5 -252q0 -97 1 -158t3.5 -131.5t8 -112.5t15 -87t23.5 -69t34 -45.5t46.5 -29.5t60.5 -8v-121q-34 0 -60.5 -8.5t-46.5 -30.5 t-34 -47t-23.5 -71.5t-15 -89t-8 -114t-3.5 -133.5t-1 -159q0 -184 -59 -251t-230 -71v125z" />
<glyph unicode="~" horiz-adv-x="743" d="M49 782q3 122 50.5 180t140.5 58q48 0 118 -25q27 -11 76.5 -35t82.5 -37.5t52 -13.5q34 0 44.5 21t13.5 90h67q0 -112 -51.5 -176t-136.5 -64q-53 0 -109 19q-25 11 -77 37.5t-86.5 40.5t-57.5 14q-32 0 -43.5 -23.5t-11.5 -85.5h-72z" />
<glyph unicode="&#xa1;" horiz-adv-x="360" d="M102 0v1452h154v-1452h-154zM102 1587v172h154v-172h-154z" />
<glyph unicode="&#xa2;" horiz-adv-x="495" d="M55 459v844q0 182 168 200v256h66v-256q174 -12 174 -200v-259h-158v271q0 61 -45 61t-45 -61v-862q0 -64 45 -64t45 64v333h158v-327q0 -188 -174 -203v-256h-66v258q-168 15 -168 201z" />
<glyph unicode="&#xa3;" horiz-adv-x="593" d="M29 0v143h94v695h-90v120h90v623q0 205 203 205q202 0 202 -205v-473h-157v485q0 64 -45 64q-43 0 -43 -64v-635h159v-120h-159v-695h256v-143h-510z" />
<glyph unicode="&#xa4;" horiz-adv-x="759" d="M12 541l107 102q-64 83 -64 193q0 104 64 190l-105 102l74 72l98 -104q84 65 195 65q105 0 192 -65l99 104l73 -72l-102 -102q64 -86 64 -190q0 -110 -64 -193l105 -102l-74 -74l-103 106q-81 -63 -190 -63q-108 0 -193 63l-102 -106zM145 836q0 -98 69 -166t167 -68 t165.5 68t67.5 166t-67.5 165.5t-165.5 67.5q-99 0 -167.5 -67.5t-68.5 -165.5z" />
<glyph unicode="&#xa5;" horiz-adv-x="526" d="M25 1759h163l80 -626l78 626h160l-150 -893h140v-114h-148v-101h148v-114h-148v-537h-158v537h-149v114h149v101h-149v114h141z" />
<glyph unicode="&#xa6;" horiz-adv-x="391" d="M127 -262v868h129v-868h-129zM127 1112v840h129v-840h-129z" />
<glyph unicode="&#xa7;" horiz-adv-x="524" d="M37 37v297h127v-301q0 -51 37 -51t37 51v119q0 107 -31.5 236t-69 230.5t-69 233.5t-31.5 244v63q0 160 151 166q-26 120 -26 229v68q0 164 162 164q163 0 163 -164v-272h-125v282q0 51 -38 51q-35 0 -35 -43v-92q0 -97 31 -225t68 -233t68 -238.5t31 -241.5v-112 q0 -153 -141 -162q16 -88 16 -189v-110q0 -164 -161 -164q-164 0 -164 164zM164 1090q0 -96 23 -196.5t69.5 -242t65.5 -211.5h2q38 0 38 52v120q0 94 -22 191q-21 89 -70.5 244.5t-54.5 173.5q-2 2 -14 2q-37 0 -37 -43v-90z" />
<glyph unicode="&#xa8;" horiz-adv-x="593" d="M109 1878v168h143v-168h-143zM340 1878v168h141v-168h-141z" />
<glyph unicode="&#xaa;" horiz-adv-x="425" d="M68 1178v155q0 20 24 48.5t53.5 52t53.5 52t24 48.5v94q0 12 -18 12q-21 0 -21 -12v-127h-116v117q0 123 137 123q72 0 109.5 -31.5t37.5 -91.5v-494q0 -28 8 -51h-116v35q-10 -20 -33 -31.5t-41 -11.5q-45 0 -73.5 28.5t-28.5 84.5zM184 1188q0 -14 21 -14q18 0 18 16 v196q-24 -14 -31.5 -24.5t-7.5 -26.5v-147z" />
<glyph unicode="&#xab;" horiz-adv-x="544" d="M31 791v145l213 151v-118l-121 -107l121 -106v-117zM303 791v145l213 151v-118l-121 -107l121 -106v-117z" />
<glyph unicode="&#xac;" horiz-adv-x="649" d="M37 764v121h567v-570h-123v449h-444z" />
<glyph unicode="&#xad;" horiz-adv-x="319" d="M31 786v115h260v-115h-260z" />
<glyph unicode="&#xaf;" horiz-adv-x="593" d="M68 1921v82h456v-82h-456z" />
<glyph unicode="&#xb0;" horiz-adv-x="436" d="M27 1571q0 215 190 215q96 0 144.5 -55.5t48.5 -159.5t-48.5 -159.5t-144.5 -55.5q-190 0 -190 215zM102 1573q0 -137 115 -137q117 0 117 137q0 135 -117 135q-115 0 -115 -135z" />
<glyph unicode="&#xb1;" horiz-adv-x="649" d="M37 764v121h221v229h123v-229h223v-121h-223v-234h-123v234h-221zM41 119v121h567v-121h-567z" />
<glyph unicode="&#xb2;" horiz-adv-x="374" d="M61 920v45q2 26 39 188q18 84 51 171.5t52.5 152.5t19.5 133v61q0 35 -28 35q-25 0 -25 -35v-131h-96v123q0 62 29.5 92.5t97.5 30.5q65 0 90.5 -25.5t25.5 -93.5v-61q0 -79 -29 -170.5t-67.5 -208t-54.5 -232.5h141v-75h-246z" />
<glyph unicode="&#xb3;" horiz-adv-x="382" d="M70 1018v205h96v-207q0 -39 24 -39q27 0 27 39v203q0 24 -11.5 35.5t-39.5 17.5v74q51 8 51 55v268q0 39 -27 39q-24 0 -24 -39v-248h-96v242q0 60 30.5 91.5t89.5 31.5q121 0 121 -123v-254q0 -89 -71 -98q42 -7 56.5 -25.5t14.5 -62.5v-205q0 -61 -29 -92t-92 -31 q-59 0 -89.5 31.5t-30.5 91.5z" />
<glyph unicode="&#xb4;" horiz-adv-x="430" d="M100 1849l52 248h176l-99 -248h-129z" />
<glyph unicode="&#xb6;" horiz-adv-x="610" d="M29 1315v252q0 192 182 192h332v-1886h-113v1763h-80v-1763h-114v1247q-116 0 -161.5 44.5t-45.5 150.5zM143 1315q0 -70 60 -70h33v391h-33q-60 0 -60 -69v-252z" />
<glyph unicode="&#xb7;" horiz-adv-x="276" d="M63 817v166h144v-166h-144z" />
<glyph unicode="&#xb8;" horiz-adv-x="200" d="M25 -360l22 282h133l-61 -282h-94z" />
<glyph unicode="&#xb9;" horiz-adv-x="276" d="M41 1608v67q64 0 86 84h78v-839h-99v688h-65z" />
<glyph unicode="&#xba;" horiz-adv-x="430" d="M68 1204v387q0 72 36.5 111t106.5 39q73 0 111 -39t38 -111v-387q0 -71 -38 -108t-111 -37q-70 0 -106.5 37t-36.5 108zM199 1198q0 -22 12 -22q16 0 16 24v406q0 22 -16 22q-12 0 -12 -22v-408z" />
<glyph unicode="&#xbb;" horiz-adv-x="544" d="M31 639v117l119 106l-119 107v118l213 -151v-145zM303 639v117l119 106l-119 107v118l213 -151v-145z" />
<glyph unicode="&#xbc;" horiz-adv-x="710" d="M61 1608v67q64 0 86 84h78v-839h-98v688h-66zM70 0l362 1759h96l-362 -1759h-96zM358 158v682h82v-604h78v604h90v-604h41v-78h-41v-158h-94v158h-156z" />
<glyph unicode="&#xbd;" horiz-adv-x="667" d="M61 1608v67q64 0 86 84h78v-839h-98v688h-66zM70 0l362 1759h96l-362 -1759h-96zM350 0v45q2 26 39 188q18 84 51 171.5t52.5 152.5t19.5 133v62q0 34 -29 34q-24 0 -24 -34v-131h-97v122q0 62 29.5 92.5t97.5 30.5q66 0 91.5 -25t25.5 -93v-62q0 -63 -18.5 -136 t-42 -133.5t-50.5 -154t-40 -186.5h141v-76h-246z" />
<glyph unicode="&#xbe;" horiz-adv-x="765" d="M63 1018v205h97v-207q0 -39 24 -39q27 0 27 39v203q0 24 -11.5 35.5t-39.5 17.5v74q51 8 51 55v268q0 39 -27 39q-24 0 -24 -39v-248h-97v242q0 60 31 91.5t90 31.5q121 0 121 -123v-254q0 -89 -72 -98q42 -7 57 -26t15 -62v-205q0 -61 -29 -92t-92 -31q-59 0 -90 31.5 t-31 91.5zM125 0l362 1759h97l-363 -1759h-96zM414 158v682h82v-604h77v604h91v-604h41v-78h-41v-158h-95v158h-155z" />
<glyph unicode="&#xbf;" horiz-adv-x="411" d="M31 141v183q0 221 7.5 309t35.5 186q40 143 53.5 217t13.5 140v325h140v-325q0 -86 -12.5 -156t-47.5 -201q-34 -127 -40.5 -200.5t-6.5 -307.5v-174q0 -49 33 -49q31 0 31 49v430h145v-428q0 -166 -176 -166q-100 0 -138 43t-38 125zM141 1587v172h140v-172h-140z" />
<glyph unicode="&#xc0;" horiz-adv-x="528" d="M61 135v645q0 68 123 144t123 168v542q0 45 -51 45t-51 -45v-571h-144v557q0 166 195 166q203 0 203 -166v-1569q0 -37 6 -51h-152q0 6 -4 68q-39 -80 -108 -80q-64 0 -102 36t-38 111zM100 2097h176l52 -248h-125zM205 152q0 -48 51 -48q25 0 38 15t13 39v743 q-69 -43 -85.5 -62.5t-16.5 -54.5v-632z" />
<glyph unicode="&#xc1;" horiz-adv-x="528" d="M61 135v645q0 68 123 144t123 168v542q0 45 -51 45t-51 -45v-571h-144v557q0 166 195 166q203 0 203 -166v-1569q0 -37 6 -51h-152q0 6 -4 68q-39 -80 -108 -80q-64 0 -102 36t-38 111zM199 1849l51 248h176l-98 -248h-129zM205 152q0 -48 51 -48q25 0 38 15t13 39v743 q-69 -43 -85.5 -62.5t-16.5 -54.5v-632z" />
<glyph unicode="&#xc2;" horiz-adv-x="528" d="M61 135v645q0 68 123 144t123 168v542q0 45 -51 45t-51 -45v-571h-144v557q0 166 195 166q203 0 203 -166v-1569q0 -37 6 -51h-152q0 6 -4 68q-39 -80 -108 -80q-64 0 -102 36t-38 111zM90 1849l119 248h113l116 -248h-92l-82 140l-82 -140h-92zM205 152q0 -48 51 -48 q25 0 38 15t13 39v743q-69 -43 -85.5 -62.5t-16.5 -54.5v-632z" />
<glyph unicode="&#xc3;" horiz-adv-x="528" d="M59 1878q3 201 123 201q31 0 74.5 -23.5t81 -47t53.5 -23.5q23 0 29 17.5t8 76.5h43q0 -95 -33 -149t-88 -54q-34 0 -67 16q-16 9 -49.5 31.5t-56 34.5t-36.5 12q-21 0 -29 -20t-8 -72h-45zM61 135v645q0 68 123 144t123 168v542q0 45 -51 45t-51 -45v-571h-144v557 q0 166 195 166q203 0 203 -166v-1569q0 -37 6 -51h-152q0 6 -4 68q-39 -80 -108 -80q-64 0 -102 36t-38 111zM205 152q0 -48 51 -48q25 0 38 15t13 39v743q-69 -43 -85.5 -62.5t-16.5 -54.5v-632z" />
<glyph unicode="&#xc4;" horiz-adv-x="528" d="M61 135v645q0 68 123 144t123 168v542q0 45 -51 45t-51 -45v-571h-144v557q0 166 195 166q203 0 203 -166v-1569q0 -37 6 -51h-152q0 6 -4 68q-39 -80 -108 -80q-64 0 -102 36t-38 111zM76 1878v168h143v-168h-143zM205 152q0 -48 51 -48q25 0 38 15t13 39v743 q-69 -43 -85.5 -62.5t-16.5 -54.5v-632zM307 1878v168h142v-168h-142z" />
<glyph unicode="&#xc5;" horiz-adv-x="528" d="M61 135v645q0 68 123 144t123 168v542q0 45 -51 45t-51 -45v-571h-144v557q0 166 195 166q203 0 203 -166v-1569q0 -37 6 -51h-152q0 6 -4 68q-39 -80 -108 -80q-64 0 -102 36t-38 111zM123 1958q0 139 133 139q66 0 100.5 -35.5t34.5 -103.5q0 -66 -34.5 -102.5 t-100.5 -36.5q-133 0 -133 139zM178 1960q0 -88 78 -88q80 0 80 88t-80 88q-78 0 -78 -88zM205 152q0 -48 51 -48q25 0 38 15t13 39v743q-69 -43 -85.5 -62.5t-16.5 -54.5v-632z" />
<glyph unicode="&#xc6;" horiz-adv-x="772" d="M63 123v657q0 29 33.5 68t74 70.5t78.5 62t44 41.5v588q0 49 -37 49q-51 0 -51 -49v-547h-142v530q0 166 193 166h244q207 0 207 -143v-793h-252v-684q0 -43 45 -43q25 0 36 10t11 33v609h160v-609q0 -78 -55 -121t-128 -43q-58 0 -92 25.5t-55 81.5q-23 -57 -60.5 -82 t-115.5 -25q-59 0 -98.5 44t-39.5 104zM205 139q0 -47 51 -47q37 0 37 47v750q-88 -52 -88 -105v-645zM455 932h92v680q0 45 -47 45q-45 0 -45 -45v-680z" />
<glyph unicode="&#xc7;" horiz-adv-x="532" d="M61 180v1401q0 205 205 205q203 0 203 -205v-537h-158v549q0 64 -45 64t-45 -64v-1419q0 -65 45 -65t45 65v612h158v-606q0 -205 -203 -205q-205 0 -205 205zM174 -360l23 282h133l-62 -282h-94z" />
<glyph unicode="&#xc8;" horiz-adv-x="542" d="M61 162v1450q0 84 53 129t156 45q97 0 153 -43.5t56 -114.5v-805h-258v-684q0 -43 51 -43q25 0 36 10t11 33v609h160v-609q0 -77 -56 -120.5t-151 -43.5q-211 0 -211 187zM106 2097h177l51 -248h-125zM221 932h98v694q0 45 -47 45q-51 0 -51 -45v-694z" />
<glyph unicode="&#xc9;" horiz-adv-x="542" d="M61 162v1450q0 84 53 129t156 45q97 0 153 -43.5t56 -114.5v-805h-258v-684q0 -43 51 -43q25 0 36 10t11 33v609h160v-609q0 -77 -56 -120.5t-151 -43.5q-211 0 -211 187zM205 1849l51 248h176l-98 -248h-129zM221 932h98v694q0 45 -47 45q-51 0 -51 -45v-694z" />
<glyph unicode="&#xca;" horiz-adv-x="542" d="M61 162v1450q0 84 53 129t156 45q97 0 153 -43.5t56 -114.5v-805h-258v-684q0 -43 51 -43q25 0 36 10t11 33v609h160v-609q0 -77 -56 -120.5t-151 -43.5q-211 0 -211 187zM96 1849l119 248h113l116 -248h-92l-82 140l-82 -140h-92zM221 932h98v694q0 45 -47 45 q-51 0 -51 -45v-694z" />
<glyph unicode="&#xcb;" horiz-adv-x="542" d="M61 162v1450q0 84 53 129t156 45q97 0 153 -43.5t56 -114.5v-805h-258v-684q0 -43 51 -43q25 0 36 10t11 33v609h160v-609q0 -77 -56 -120.5t-151 -43.5q-211 0 -211 187zM84 1878v168h143v-168h-143zM221 932h98v694q0 45 -47 45q-51 0 -51 -45v-694zM315 1878v168h142 v-168h-142z" />
<glyph unicode="&#xcc;" horiz-adv-x="292" d="M-18 2097h176l51 -248h-125zM63 0v1759h158v-1759h-158z" />
<glyph unicode="&#xcd;" horiz-adv-x="292" d="M63 0v1759h158v-1759h-158zM82 1849l51 248h176l-98 -248h-129z" />
<glyph unicode="&#xce;" horiz-adv-x="292" d="M-29 1849l119 248h113l116 -248h-92l-82 140l-82 -140h-92zM63 0v1759h158v-1759h-158z" />
<glyph unicode="&#xcf;" horiz-adv-x="292" d="M-41 1878v168h143v-168h-143zM63 0v1759h158v-1759h-158zM190 1878v168h142v-168h-142z" />
<glyph unicode="&#xd0;" horiz-adv-x="524" d="M0 823v103h49v833h189q221 0 221 -192v-1374q0 -193 -221 -193h-189v823h-49zM207 131h33q63 0 63 70v1368q0 69 -63 69h-33v-712h47v-103h-47v-692z" />
<glyph unicode="&#xd1;" horiz-adv-x="524" d="M55 1878q3 201 123 201q31 0 74.5 -23.5t81 -47t53.5 -23.5q23 0 29 17.5t8 76.5h43q0 -95 -33 -149t-88 -54q-34 0 -67 16q-16 9 -49.5 31.5t-56 34.5t-36.5 12q-21 0 -29 -20t-8 -72h-45zM63 0v1759h146v-65q40 78 137 78q111 0 111 -146v-1626h-150v1604q0 49 -51 49 q-41 0 -41 -49v-1604h-152z" />
<glyph unicode="&#xd2;" d="M61 180v1401q0 205 205 205q207 0 207 -205v-1401q0 -205 -207 -205q-205 0 -205 205zM102 2097h177l51 -248h-125zM221 170q0 -61 45 -61q47 0 47 63v1427q0 60 -47 60q-45 0 -45 -60v-1429z" />
<glyph unicode="&#xd3;" d="M61 180v1401q0 205 205 205q207 0 207 -205v-1401q0 -205 -207 -205q-205 0 -205 205zM201 1849l51 248h176l-98 -248h-129zM221 170q0 -61 45 -61q47 0 47 63v1427q0 60 -47 60q-45 0 -45 -60v-1429z" />
<glyph unicode="&#xd4;" d="M61 180v1401q0 205 205 205q207 0 207 -205v-1401q0 -205 -207 -205q-205 0 -205 205zM94 1849l119 248h113l116 -248h-92l-82 140l-82 -140h-92zM221 170q0 -61 45 -61q47 0 47 63v1427q0 60 -47 60q-45 0 -45 -60v-1429z" />
<glyph unicode="&#xd5;" d="M61 180v1401q0 205 205 205q207 0 207 -205v-1401q0 -205 -207 -205q-205 0 -205 205zM61 1878q3 201 123 201q31 0 74.5 -23.5t81 -47t53.5 -23.5q23 0 29 17.5t8 76.5h43q0 -95 -33 -149t-88 -54q-34 0 -67 16q-16 9 -49.5 31.5t-56 34.5t-36.5 12q-21 0 -29 -20 t-8 -72h-45zM221 170q0 -61 45 -61q47 0 47 63v1427q0 60 -47 60q-45 0 -45 -60v-1429z" />
<glyph unicode="&#xd6;" d="M61 180v1401q0 205 205 205q207 0 207 -205v-1401q0 -205 -207 -205q-205 0 -205 205zM80 1878v168h143v-168h-143zM221 170q0 -61 45 -61q47 0 47 63v1427q0 60 -47 60q-45 0 -45 -60v-1429zM311 1878v168h142v-168h-142z" />
<glyph unicode="&#xd7;" horiz-adv-x="649" d="M70 662l163 163l-153 154l84 86l155 -156l162 164l88 -88l-163 -162l159 -157l-86 -86l-157 157l-164 -164z" />
<glyph unicode="&#xd8;" horiz-adv-x="557" d="M4 0l68 238v1343q0 205 202 205q150 0 193 -113l27 96l45 -14l-58 -205v-1370q0 -205 -207 -205q-167 0 -194 131l-35 -120zM231 170q0 -61 43 -61q50 0 50 63v817l-93 -336v-483zM231 817l93 338v444q0 60 -50 60q-43 0 -43 -60v-782z" />
<glyph unicode="&#xd9;" horiz-adv-x="522" d="M57 180v1579h162v-1585q0 -65 43 -65q49 0 49 65v1585h158v-1579q0 -205 -207 -205q-205 0 -205 205zM98 2097h176l52 -248h-125z" />
<glyph unicode="&#xda;" horiz-adv-x="522" d="M57 180v1579h162v-1585q0 -65 43 -65q49 0 49 65v1585h158v-1579q0 -205 -207 -205q-205 0 -205 205zM193 1849l51 248h176l-98 -248h-129z" />
<glyph unicode="&#xdb;" horiz-adv-x="522" d="M57 180v1579h162v-1585q0 -65 43 -65q49 0 49 65v1585h158v-1579q0 -205 -207 -205q-205 0 -205 205zM88 1849l119 248h112l117 -248h-92l-82 140l-82 -140h-92z" />
<glyph unicode="&#xdc;" horiz-adv-x="522" d="M57 180v1579h162v-1585q0 -65 43 -65q49 0 49 65v1585h158v-1579q0 -205 -207 -205q-205 0 -205 205zM74 1878v168h143v-168h-143zM305 1878v168h141v-168h-141z" />
<glyph unicode="&#xdd;" horiz-adv-x="546" d="M61 180v467h162v-473q0 -31 13.5 -48t35.5 -17q50 0 50 65v598q-46 -49 -113 -49q-64 0 -106 43.5t-42 107.5v885h162v-831q0 -29 12.5 -45.5t30.5 -16.5q26 0 41 16t15 46v831h159v-1579q0 -205 -215 -205q-205 0 -205 205zM207 1849l51 248h176l-98 -248h-129z" />
<glyph unicode="&#xde;" horiz-adv-x="491" d="M63 0v1759h158v-424h33q223 0 223 -192v-617q0 -108 -56 -151t-198 -43v-332h-160zM223 457h35q59 0 59 69v617q0 71 -59 71h-35v-757z" />
<glyph unicode="&#xdf;" horiz-adv-x="1011" d="M55 180v371h160v-377q0 -65 45 -65q47 0 47 65v150q0 124 -28 239q-26 113 -91 314.5t-90 306.5q-43 171 -43 315v82q0 205 205 205t205 -205v-340h-158v352q0 66 -47 66q-45 0 -45 -53v-115q0 -123 31 -246q25 -103 93.5 -314t94.5 -331q31 -152 31 -281v-139 q0 -205 -205 -205t-205 205zM543 180v371h159v-377q0 -65 46 -65q47 0 47 65v150q0 120 -29 239q-26 113 -90.5 314.5t-89.5 306.5q-43 171 -43 315v82q0 205 205 205q204 0 204 -205v-340h-157v352q0 66 -47 66q-21 0 -33.5 -13.5t-12.5 -39.5v-115q0 -123 31 -246 q25 -103 94 -314.5t95 -330.5q30 -147 30 -281v-139q0 -205 -204 -205q-205 0 -205 205z" />
<glyph unicode="&#xe0;" horiz-adv-x="528" d="M61 135v645q0 68 123 144t123 168v542q0 45 -51 45t-51 -45v-571h-144v557q0 166 195 166q203 0 203 -166v-1569q0 -37 6 -51h-152q0 6 -4 68q-39 -80 -108 -80q-64 0 -102 36t-38 111zM100 2097h176l52 -248h-125zM205 152q0 -48 51 -48q25 0 38 15t13 39v743 q-69 -43 -85.5 -62.5t-16.5 -54.5v-632z" />
<glyph unicode="&#xe1;" horiz-adv-x="528" d="M61 135v645q0 68 123 144t123 168v542q0 45 -51 45t-51 -45v-571h-144v557q0 166 195 166q203 0 203 -166v-1569q0 -37 6 -51h-152q0 6 -4 68q-39 -80 -108 -80q-64 0 -102 36t-38 111zM199 1849l51 248h176l-98 -248h-129zM205 152q0 -48 51 -48q25 0 38 15t13 39v743 q-69 -43 -85.5 -62.5t-16.5 -54.5v-632z" />
<glyph unicode="&#xe2;" horiz-adv-x="528" d="M61 135v645q0 68 123 144t123 168v542q0 45 -51 45t-51 -45v-571h-144v557q0 166 195 166q203 0 203 -166v-1569q0 -37 6 -51h-152q0 6 -4 68q-39 -80 -108 -80q-64 0 -102 36t-38 111zM90 1849l119 248h113l116 -248h-92l-82 140l-82 -140h-92zM205 152q0 -48 51 -48 q25 0 38 15t13 39v743q-69 -43 -85.5 -62.5t-16.5 -54.5v-632z" />
<glyph unicode="&#xe3;" horiz-adv-x="528" d="M59 1878q3 201 123 201q31 0 74.5 -23.5t81 -47t53.5 -23.5q23 0 29 17.5t8 76.5h43q0 -95 -33 -149t-88 -54q-34 0 -67 16q-16 9 -49.5 31.5t-56 34.5t-36.5 12q-21 0 -29 -20t-8 -72h-45zM61 135v645q0 68 123 144t123 168v542q0 45 -51 45t-51 -45v-571h-144v557 q0 166 195 166q203 0 203 -166v-1569q0 -37 6 -51h-152q0 6 -4 68q-39 -80 -108 -80q-64 0 -102 36t-38 111zM205 152q0 -48 51 -48q25 0 38 15t13 39v743q-69 -43 -85.5 -62.5t-16.5 -54.5v-632z" />
<glyph unicode="&#xe4;" horiz-adv-x="528" d="M61 135v645q0 68 123 144t123 168v542q0 45 -51 45t-51 -45v-571h-144v557q0 166 195 166q203 0 203 -166v-1569q0 -37 6 -51h-152q0 6 -4 68q-39 -80 -108 -80q-64 0 -102 36t-38 111zM76 1878v168h143v-168h-143zM205 152q0 -48 51 -48q25 0 38 15t13 39v743 q-69 -43 -85.5 -62.5t-16.5 -54.5v-632zM307 1878v168h142v-168h-142z" />
<glyph unicode="&#xe5;" horiz-adv-x="528" d="M61 135v645q0 68 123 144t123 168v542q0 45 -51 45t-51 -45v-571h-144v557q0 166 195 166q203 0 203 -166v-1569q0 -37 6 -51h-152q0 6 -4 68q-39 -80 -108 -80q-64 0 -102 36t-38 111zM123 1958q0 139 133 139q66 0 100.5 -35.5t34.5 -103.5q0 -66 -34.5 -102.5 t-100.5 -36.5q-133 0 -133 139zM178 1960q0 -88 78 -88q80 0 80 88t-80 88q-78 0 -78 -88zM205 152q0 -48 51 -48q25 0 38 15t13 39v743q-69 -43 -85.5 -62.5t-16.5 -54.5v-632z" />
<glyph unicode="&#xe6;" horiz-adv-x="772" d="M63 123v657q0 29 33.5 68t74 70.5t78.5 62t44 41.5v588q0 49 -37 49q-51 0 -51 -49v-547h-142v530q0 166 193 166h244q207 0 207 -143v-793h-252v-684q0 -43 45 -43q25 0 36 10t11 33v609h160v-609q0 -78 -55 -121t-128 -43q-58 0 -92 25.5t-55 81.5q-23 -57 -60.5 -82 t-115.5 -25q-59 0 -98.5 44t-39.5 104zM205 139q0 -47 51 -47q37 0 37 47v750q-88 -52 -88 -105v-645zM455 932h92v680q0 45 -47 45q-45 0 -45 -45v-680z" />
<glyph unicode="&#xe7;" horiz-adv-x="532" d="M61 180v1401q0 205 205 205q203 0 203 -205v-537h-158v549q0 64 -45 64t-45 -64v-1419q0 -65 45 -65t45 65v612h158v-606q0 -205 -203 -205q-205 0 -205 205zM174 -360l23 282h133l-62 -282h-94z" />
<glyph unicode="&#xe8;" horiz-adv-x="542" d="M61 162v1450q0 84 53 129t156 45q97 0 153 -43.5t56 -114.5v-805h-258v-684q0 -43 51 -43q25 0 36 10t11 33v609h160v-609q0 -77 -56 -120.5t-151 -43.5q-211 0 -211 187zM106 2097h177l51 -248h-125zM221 932h98v694q0 45 -47 45q-51 0 -51 -45v-694z" />
<glyph unicode="&#xe9;" horiz-adv-x="542" d="M61 162v1450q0 84 53 129t156 45q97 0 153 -43.5t56 -114.5v-805h-258v-684q0 -43 51 -43q25 0 36 10t11 33v609h160v-609q0 -77 -56 -120.5t-151 -43.5q-211 0 -211 187zM205 1849l51 248h176l-98 -248h-129zM221 932h98v694q0 45 -47 45q-51 0 -51 -45v-694z" />
<glyph unicode="&#xea;" horiz-adv-x="542" d="M61 162v1450q0 84 53 129t156 45q97 0 153 -43.5t56 -114.5v-805h-258v-684q0 -43 51 -43q25 0 36 10t11 33v609h160v-609q0 -77 -56 -120.5t-151 -43.5q-211 0 -211 187zM96 1849l119 248h113l116 -248h-92l-82 140l-82 -140h-92zM221 932h98v694q0 45 -47 45 q-51 0 -51 -45v-694z" />
<glyph unicode="&#xeb;" horiz-adv-x="542" d="M61 162v1450q0 84 53 129t156 45q97 0 153 -43.5t56 -114.5v-805h-258v-684q0 -43 51 -43q25 0 36 10t11 33v609h160v-609q0 -77 -56 -120.5t-151 -43.5q-211 0 -211 187zM84 1878v168h143v-168h-143zM221 932h98v694q0 45 -47 45q-51 0 -51 -45v-694zM315 1878v168h142 v-168h-142z" />
<glyph unicode="&#xec;" horiz-adv-x="292" d="M-18 2097h176l51 -248h-125zM63 0v1759h158v-1759h-158z" />
<glyph unicode="&#xed;" horiz-adv-x="292" d="M63 0v1759h158v-1759h-158zM82 1849l51 248h176l-98 -248h-129z" />
<glyph unicode="&#xee;" horiz-adv-x="292" d="M-29 1849l119 248h113l116 -248h-92l-82 140l-82 -140h-92zM63 0v1759h158v-1759h-158z" />
<glyph unicode="&#xef;" horiz-adv-x="292" d="M-41 1878v168h143v-168h-143zM63 0v1759h158v-1759h-158zM190 1878v168h142v-168h-142z" />
<glyph unicode="&#xf0;" horiz-adv-x="524" d="M0 823v103h49v833h189q221 0 221 -192v-1374q0 -193 -221 -193h-189v823h-49zM207 131h33q63 0 63 70v1368q0 69 -63 69h-33v-712h47v-103h-47v-692z" />
<glyph unicode="&#xf1;" horiz-adv-x="524" d="M55 1878q3 201 123 201q31 0 74.5 -23.5t81 -47t53.5 -23.5q23 0 29 17.5t8 76.5h43q0 -95 -33 -149t-88 -54q-34 0 -67 16q-16 9 -49.5 31.5t-56 34.5t-36.5 12q-21 0 -29 -20t-8 -72h-45zM63 0v1759h146v-65q40 78 137 78q111 0 111 -146v-1626h-150v1604q0 49 -51 49 q-41 0 -41 -49v-1604h-152z" />
<glyph unicode="&#xf2;" d="M61 180v1401q0 205 205 205q207 0 207 -205v-1401q0 -205 -207 -205q-205 0 -205 205zM102 2097h177l51 -248h-125zM221 170q0 -61 45 -61q47 0 47 63v1427q0 60 -47 60q-45 0 -45 -60v-1429z" />
<glyph unicode="&#xf3;" d="M61 180v1401q0 205 205 205q207 0 207 -205v-1401q0 -205 -207 -205q-205 0 -205 205zM201 1849l51 248h176l-98 -248h-129zM221 170q0 -61 45 -61q47 0 47 63v1427q0 60 -47 60q-45 0 -45 -60v-1429z" />
<glyph unicode="&#xf4;" d="M61 180v1401q0 205 205 205q207 0 207 -205v-1401q0 -205 -207 -205q-205 0 -205 205zM94 1849l119 248h113l116 -248h-92l-82 140l-82 -140h-92zM221 170q0 -61 45 -61q47 0 47 63v1427q0 60 -47 60q-45 0 -45 -60v-1429z" />
<glyph unicode="&#xf5;" d="M61 180v1401q0 205 205 205q207 0 207 -205v-1401q0 -205 -207 -205q-205 0 -205 205zM61 1878q3 201 123 201q31 0 74.5 -23.5t81 -47t53.5 -23.5q23 0 29 17.5t8 76.5h43q0 -95 -33 -149t-88 -54q-34 0 -67 16q-16 9 -49.5 31.5t-56 34.5t-36.5 12q-21 0 -29 -20 t-8 -72h-45zM221 170q0 -61 45 -61q47 0 47 63v1427q0 60 -47 60q-45 0 -45 -60v-1429z" />
<glyph unicode="&#xf6;" d="M61 180v1401q0 205 205 205q207 0 207 -205v-1401q0 -205 -207 -205q-205 0 -205 205zM80 1878v168h143v-168h-143zM221 170q0 -61 45 -61q47 0 47 63v1427q0 60 -47 60q-45 0 -45 -60v-1429zM311 1878v168h142v-168h-142z" />
<glyph unicode="&#xf7;" horiz-adv-x="649" d="M37 764v121h567v-121h-567zM252 375v168h143v-168h-143zM252 1104v168h143v-168h-143z" />
<glyph unicode="&#xf8;" horiz-adv-x="557" d="M4 0l68 238v1343q0 205 202 205q150 0 193 -113l27 96l45 -14l-58 -205v-1370q0 -205 -207 -205q-167 0 -194 131l-35 -120zM231 170q0 -61 43 -61q50 0 50 63v817l-93 -336v-483zM231 817l93 338v444q0 60 -50 60q-43 0 -43 -60v-782z" />
<glyph unicode="&#xf9;" horiz-adv-x="522" d="M57 180v1579h162v-1585q0 -65 43 -65q49 0 49 65v1585h158v-1579q0 -205 -207 -205q-205 0 -205 205zM98 2097h176l52 -248h-125z" />
<glyph unicode="&#xfa;" horiz-adv-x="522" d="M57 180v1579h162v-1585q0 -65 43 -65q49 0 49 65v1585h158v-1579q0 -205 -207 -205q-205 0 -205 205zM193 1849l51 248h176l-98 -248h-129z" />
<glyph unicode="&#xfb;" horiz-adv-x="522" d="M57 180v1579h162v-1585q0 -65 43 -65q49 0 49 65v1585h158v-1579q0 -205 -207 -205q-205 0 -205 205zM88 1849l119 248h112l117 -248h-92l-82 140l-82 -140h-92z" />
<glyph unicode="&#xfc;" horiz-adv-x="522" d="M57 180v1579h162v-1585q0 -65 43 -65q49 0 49 65v1585h158v-1579q0 -205 -207 -205q-205 0 -205 205zM74 1878v168h143v-168h-143zM305 1878v168h141v-168h-141z" />
<glyph unicode="&#xfd;" horiz-adv-x="546" d="M61 180v467h162v-473q0 -31 13.5 -48t35.5 -17q50 0 50 65v598q-46 -49 -113 -49q-64 0 -106 43.5t-42 107.5v885h162v-831q0 -29 12.5 -45.5t30.5 -16.5q26 0 41 16t15 46v831h159v-1579q0 -205 -215 -205q-205 0 -205 205zM207 1849l51 248h176l-98 -248h-129z" />
<glyph unicode="&#xfe;" horiz-adv-x="491" d="M63 0v1759h158v-424h33q223 0 223 -192v-617q0 -108 -56 -151t-198 -43v-332h-160zM223 457h35q59 0 59 69v617q0 71 -59 71h-35v-757z" />
<glyph unicode="&#xff;" horiz-adv-x="546" d="M61 180v467h162v-473q0 -31 13.5 -48t35.5 -17q50 0 50 65v598q-46 -49 -113 -49q-64 0 -106 43.5t-42 107.5v885h162v-831q0 -29 12.5 -45.5t30.5 -16.5q26 0 41 16t15 46v831h159v-1579q0 -205 -215 -205q-205 0 -205 205zM88 1878v168h143v-168h-143zM319 1878v168 h142v-168h-142z" />
<glyph unicode="&#x152;" horiz-adv-x="796" d="M63 180v1401q0 205 205 205q70 0 127 -31q57 31 129 31q95 0 152 -43t57 -115v-805h-258v-684q0 -43 51 -43q47 0 47 43v609h160v-609q0 -71 -58 -117.5t-149 -46.5q-75 0 -131 29q-53 -29 -127 -29q-205 0 -205 205zM223 170q0 -61 45 -61t45 63v1425q0 62 -45 62 t-45 -60v-1429zM475 932h98v694q0 45 -47 45q-51 0 -51 -45v-694z" />
<glyph unicode="&#x153;" horiz-adv-x="796" d="M63 180v1401q0 205 205 205q70 0 127 -31q57 31 129 31q95 0 152 -43t57 -115v-805h-258v-684q0 -43 51 -43q47 0 47 43v609h160v-609q0 -71 -58 -117.5t-149 -46.5q-75 0 -131 29q-53 -29 -127 -29q-205 0 -205 205zM223 170q0 -61 45 -61t45 63v1425q0 62 -45 62 t-45 -60v-1429zM475 932h98v694q0 45 -47 45q-51 0 -51 -45v-694z" />
<glyph unicode="&#x178;" horiz-adv-x="546" d="M61 180v467h162v-473q0 -31 13.5 -48t35.5 -17q50 0 50 65v598q-46 -49 -113 -49q-64 0 -106 43.5t-42 107.5v885h162v-831q0 -29 12.5 -45.5t30.5 -16.5q26 0 41 16t15 46v831h159v-1579q0 -205 -215 -205q-205 0 -205 205zM88 1878v168h143v-168h-143zM319 1878v168 h142v-168h-142z" />
<glyph unicode="&#x2c6;" horiz-adv-x="608" d="M129 1849l119 248h112l117 -248h-92l-82 140l-82 -140h-92z" />
<glyph unicode="&#x2dc;" horiz-adv-x="659" d="M123 1878q3 201 123 201q39 0 116 -47t93 -47q23 0 29 17.5t8 76.5h43q0 -95 -33 -149t-88 -54q-35 0 -68 16q-17 9 -49.5 31.5t-55 34.5t-36.5 12q-21 0 -29 -20t-8 -72h-45z" />
<glyph unicode="&#x2000;" horiz-adv-x="1048" />
<glyph unicode="&#x2001;" horiz-adv-x="2097" />
<glyph unicode="&#x2002;" horiz-adv-x="1048" />
<glyph unicode="&#x2003;" horiz-adv-x="2097" />
<glyph unicode="&#x2004;" horiz-adv-x="699" />
<glyph unicode="&#x2005;" horiz-adv-x="524" />
<glyph unicode="&#x2006;" horiz-adv-x="349" />
<glyph unicode="&#x2007;" horiz-adv-x="349" />
<glyph unicode="&#x2008;" horiz-adv-x="262" />
<glyph unicode="&#x2009;" horiz-adv-x="419" />
<glyph unicode="&#x200a;" horiz-adv-x="116" />
<glyph unicode="&#x2010;" horiz-adv-x="319" d="M31 786v115h260v-115h-260z" />
<glyph unicode="&#x2011;" horiz-adv-x="319" d="M31 786v115h260v-115h-260z" />
<glyph unicode="&#x2012;" horiz-adv-x="319" d="M31 786v115h260v-115h-260z" />
<glyph unicode="&#x2013;" horiz-adv-x="673" d="M31 786v115h614v-115h-614z" />
<glyph unicode="&#x2014;" horiz-adv-x="1183" d="M31 786v115h1122v-115h-1122z" />
<glyph unicode="&#x2018;" horiz-adv-x="256" d="M63 1360v399h119v-399h-119z" />
<glyph unicode="&#x2019;" horiz-adv-x="256" d="M63 1360v399h119v-399h-119z" />
<glyph unicode="&#x201a;" horiz-adv-x="303" d="M41 -188l49 348h148l-107 -348h-90z" />
<glyph unicode="&#x201c;" horiz-adv-x="468" d="M63 1352v403h119v-403h-119zM287 1352v403h116v-403h-116z" />
<glyph unicode="&#x201d;" horiz-adv-x="468" d="M63 1352v403h119v-403h-119zM287 1352v403h116v-403h-116z" />
<glyph unicode="&#x201e;" horiz-adv-x="690" d="M41 -188l49 348h148l-107 -348h-90zM420 -188l49 348h147l-106 -348h-90z" />
<glyph unicode="&#x2022;" horiz-adv-x="516" d="M47 870q0 89 62 150t151 61t151 -61t62 -150q0 -91 -63 -154t-152 -63t-150 63t-61 154z" />
<glyph unicode="&#x2026;" horiz-adv-x="890" d="M63 0v168h144v-168h-144zM360 0v168h144v-168h-144zM659 0v168h144v-168h-144z" />
<glyph unicode="&#x202f;" horiz-adv-x="419" />
<glyph unicode="&#x2039;" horiz-adv-x="272" d="M31 791v145l213 151v-118l-121 -107l121 -106v-117z" />
<glyph unicode="&#x203a;" horiz-adv-x="272" d="M31 639v117l119 106l-119 107v118l213 -151v-145z" />
<glyph unicode="&#x205f;" horiz-adv-x="524" />
<glyph unicode="&#x20ac;" horiz-adv-x="593" d="M33 651v119h90v176h-90v119h90v516q0 205 203 205q131 0 225 -33l-25 -156q-3 60 -200 60q-43 0 -43 -64v-528h159l-18 -119h-141v-176h110l-18 -119h-92v-477q0 -65 43 -65q49 0 49 65v318h155v-312q0 -205 -204 -205q-203 0 -203 205v471h-90z" />
<glyph unicode="&#x2122;" horiz-adv-x="608" d="M18 1696v63h236v-63h-82v-260h-70v260h-84zM283 1436v323h77l64 -168l59 168h78v-323h-67v180l-68 -182l-80 188v-186h-63z" />
</font>
</defs>
</svg>
